<svg width="28" height="25" viewBox="0 0 28 25" fill="none" xmlns="http://www.w3.org/2000/svg">
<path d="M26.7291 13.545L23.3411 6.28799C23.2926 6.18876 23.2148 6.1068 23.1183 6.05315C23.0217 5.99951 22.911 5.97677 22.8011 5.988H19.9201C19.761 5.988 19.6084 6.05121 19.4959 6.16373C19.3834 6.27625 19.3201 6.42886 19.3201 6.58799C19.3201 6.74712 19.3834 6.89974 19.4959 7.01226C19.6084 7.12478 19.761 7.18799 19.9201 7.18799H22.4091L25.1981 13.188H21.7791C21.0201 13.1839 20.2762 13.3998 19.6373 13.8096C18.9985 14.2194 18.492 14.8055 18.1791 15.497C17.9523 15.9728 17.5953 16.3746 17.1495 16.6559C16.7037 16.9371 16.1873 17.0863 15.6601 17.086H12.1841C11.6567 17.086 11.1401 16.9364 10.6942 16.6546C10.2483 16.3728 9.89152 15.9704 9.66514 15.494C9.35232 14.8025 8.84583 14.2164 8.20695 13.8066C7.56806 13.3968 6.82414 13.1809 6.06514 13.185H2.70814L6.00814 7.18499H7.92914C8.08827 7.18499 8.24089 7.12178 8.35341 7.00926C8.46593 6.89674 8.52914 6.74413 8.52914 6.585C8.52914 6.42587 8.46593 6.27325 8.35341 6.16073C8.24089 6.04821 8.08827 5.985 7.92914 5.985H5.64714C5.54088 5.97493 5.43393 5.9949 5.33846 6.04263C5.24299 6.09036 5.16285 6.16394 5.10714 6.25499L1.14914 13.515C1.07971 13.5765 1.03672 13.6625 1.02914 13.755V21.222C1.05214 22.0312 1.38588 22.8004 1.96109 23.3701C2.53629 23.9397 3.30877 24.2659 4.11814 24.281H23.7291C24.5386 24.2661 25.3112 23.94 25.8865 23.3703C26.4617 22.8007 26.7954 22.0313 26.8181 21.222V13.755C26.807 13.6785 26.7764 13.6062 26.7291 13.545ZM25.6191 21.221C25.5967 21.7119 25.3895 22.1763 25.0393 22.521C24.689 22.8657 24.2214 23.0654 23.7301 23.08H4.11814C3.62707 23.0654 3.15962 22.8659 2.80936 22.5214C2.4591 22.1768 2.25187 21.7128 2.22914 21.222V14.385H6.06714C6.59427 14.3847 7.11067 14.5339 7.5565 14.8151C8.00234 15.0963 8.35934 15.4982 8.58614 15.974C8.89897 16.6655 9.40545 17.2516 10.0443 17.6614C10.6832 18.0712 11.4271 18.2871 12.1861 18.283H15.6641C16.4231 18.2871 17.1671 18.0712 17.8059 17.6614C18.4448 17.2516 18.9513 16.6655 19.2641 15.974C19.4909 15.4982 19.8479 15.0963 20.2938 14.8151C20.7396 14.5339 21.256 14.3847 21.7831 14.385H25.6211V21.222L25.6191 21.221Z" fill="#97AABD"/>
<path d="M13.5041 14.745C13.6061 14.8548 13.7472 14.9201 13.897 14.9266C14.0467 14.9332 14.193 14.8805 14.3041 14.78C14.3161 14.769 14.3281 14.757 14.3391 14.745L18.4171 10.637C18.5038 10.5214 18.5459 10.3785 18.5356 10.2345C18.5254 10.0904 18.4635 9.95486 18.3614 9.85273C18.2593 9.7506 18.1237 9.68874 17.9797 9.6785C17.8356 9.66826 17.6927 9.71033 17.5771 9.79699L14.5181 12.856V1.46099C14.5181 1.30186 14.4549 1.14925 14.3424 1.03673C14.2299 0.924207 14.0773 0.860992 13.9182 0.860992C13.759 0.860992 13.6064 0.924207 13.4939 1.03673C13.3814 1.14925 13.3181 1.30186 13.3181 1.46099V12.855L10.2591 9.79599C10.1436 9.70934 10.0007 9.66726 9.85661 9.6775C9.71255 9.68774 9.57701 9.7496 9.47488 9.85173C9.37276 9.95386 9.3109 10.0894 9.30066 10.2335C9.29042 10.3775 9.33249 10.5204 9.41914 10.636L13.5041 14.745Z" fill="#97AABD"/>
<path d="M26.7291 13.545L23.3411 6.28799C23.2926 6.18876 23.2148 6.1068 23.1183 6.05315C23.0217 5.99951 22.911 5.97677 22.8011 5.988H19.9201C19.761 5.988 19.6084 6.05121 19.4959 6.16373C19.3834 6.27625 19.3201 6.42886 19.3201 6.58799C19.3201 6.74712 19.3834 6.89974 19.4959 7.01226C19.6084 7.12478 19.761 7.18799 19.9201 7.18799H22.4091L25.1981 13.188H21.7791C21.0201 13.1839 20.2762 13.3998 19.6373 13.8096C18.9985 14.2194 18.492 14.8055 18.1791 15.497C17.9523 15.9728 17.5953 16.3746 17.1495 16.6559C16.7037 16.9371 16.1873 17.0863 15.6601 17.086H12.1841C11.6567 17.086 11.1401 16.9364 10.6942 16.6546C10.2483 16.3728 9.89152 15.9704 9.66514 15.494C9.35232 14.8025 8.84583 14.2164 8.20695 13.8066C7.56806 13.3968 6.82414 13.1809 6.06514 13.185H2.70814L6.00814 7.18499H7.92914C8.08827 7.18499 8.24089 7.12178 8.35341 7.00926C8.46593 6.89674 8.52914 6.74413 8.52914 6.585C8.52914 6.42587 8.46593 6.27325 8.35341 6.16073C8.24089 6.04821 8.08827 5.985 7.92914 5.985H5.64714C5.54088 5.97493 5.43393 5.9949 5.33846 6.04263C5.24299 6.09036 5.16285 6.16394 5.10714 6.25499L1.14914 13.515C1.07971 13.5765 1.03672 13.6625 1.02914 13.755V21.222C1.05214 22.0312 1.38588 22.8004 1.96109 23.3701C2.53629 23.9397 3.30877 24.2659 4.11814 24.281H23.7291C24.5386 24.2661 25.3112 23.94 25.8865 23.3703C26.4617 22.8007 26.7954 22.0313 26.8181 21.222V13.755C26.807 13.6785 26.7764 13.6062 26.7291 13.545ZM25.6191 21.221C25.5967 21.7119 25.3895 22.1763 25.0393 22.521C24.689 22.8657 24.2214 23.0654 23.7301 23.08H4.11814C3.62707 23.0654 3.15962 22.8659 2.80936 22.5214C2.4591 22.1768 2.25187 21.7128 2.22914 21.222V14.385H6.06714C6.59427 14.3847 7.11067 14.5339 7.5565 14.8151C8.00234 15.0963 8.35934 15.4982 8.58614 15.974C8.89897 16.6655 9.40545 17.2516 10.0443 17.6614C10.6832 18.0712 11.4271 18.2871 12.1861 18.283H15.6641C16.4231 18.2871 17.1671 18.0712 17.8059 17.6614C18.4448 17.2516 18.9513 16.6655 19.2641 15.974C19.4909 15.4982 19.8479 15.0963 20.2938 14.8151C20.7396 14.5339 21.256 14.3847 21.7831 14.385H25.6211V21.222L25.6191 21.221Z" stroke="#97AABD" stroke-width="0.5"/>
<path d="M13.5041 14.745C13.6061 14.8548 13.7472 14.9201 13.897 14.9266C14.0467 14.9332 14.193 14.8805 14.3041 14.78C14.3161 14.769 14.3281 14.757 14.3391 14.745L18.4171 10.637C18.5038 10.5214 18.5459 10.3785 18.5356 10.2345C18.5254 10.0904 18.4635 9.95486 18.3614 9.85273C18.2593 9.7506 18.1237 9.68874 17.9797 9.6785C17.8356 9.66826 17.6927 9.71033 17.5771 9.79699L14.5181 12.856V1.46099C14.5181 1.30186 14.4549 1.14925 14.3424 1.03673C14.2299 0.924207 14.0773 0.860992 13.9182 0.860992C13.759 0.860992 13.6064 0.924207 13.4939 1.03673C13.3814 1.14925 13.3181 1.30186 13.3181 1.46099V12.855L10.2591 9.79599C10.1436 9.70934 10.0007 9.66726 9.85661 9.6775C9.71255 9.68774 9.57701 9.7496 9.47488 9.85173C9.37276 9.95386 9.3109 10.0894 9.30066 10.2335C9.29042 10.3775 9.33249 10.5204 9.41914 10.636L13.5041 14.745Z" stroke="#97AABD" stroke-width="0.5"/>
</svg>
